<mxfile host="app.diagrams.net" modified="2024-02-22T17:31:21.417Z" agent="Mozilla/5.0 (Windows NT 10.0; Win64; x64) AppleWebKit/537.36 (KHTML, like Gecko) Chrome/121.0.0.0 Safari/537.36" etag="VdWBB2UAAhTJLy_dT7UQ" version="23.1.6" type="github">
  <diagram name="PÃ¡gina-1" id="bynPcITnuPDcgUBWQxV-">
    <mxGraphModel dx="949" dy="1040" grid="1" gridSize="10" guides="1" tooltips="1" connect="1" arrows="1" fold="1" page="1" pageScale="1" pageWidth="827" pageHeight="1169" math="0" shadow="0">
      <root>
        <mxCell id="0" />
        <mxCell id="1" parent="0" />
        <mxCell id="ttpy7Zn74e-UWXRv_ulR-1" value="" style="ellipse;whiteSpace=wrap;html=1;" vertex="1" parent="1">
          <mxGeometry x="260" y="360" width="170" height="150" as="geometry" />
        </mxCell>
        <mxCell id="ttpy7Zn74e-UWXRv_ulR-2" value="&lt;font style=&quot;vertical-align: inherit;&quot;&gt;&lt;font style=&quot;vertical-align: inherit;&quot;&gt;Naturais&lt;/font&gt;&lt;/font&gt;" style="text;strokeColor=none;align=center;fillColor=none;html=1;verticalAlign=middle;whiteSpace=wrap;rounded=0;" vertex="1" parent="1">
          <mxGeometry x="315" y="420" width="55" height="20" as="geometry" />
        </mxCell>
        <mxCell id="ttpy7Zn74e-UWXRv_ulR-6" value="" style="rounded=1;whiteSpace=wrap;html=1;" vertex="1" parent="1">
          <mxGeometry x="345" y="675" width="80" height="40" as="geometry" />
        </mxCell>
        <mxCell id="ttpy7Zn74e-UWXRv_ulR-10" value="" style="edgeStyle=orthogonalEdgeStyle;rounded=0;orthogonalLoop=1;jettySize=auto;html=1;" edge="1" parent="1" source="ttpy7Zn74e-UWXRv_ulR-7" target="ttpy7Zn74e-UWXRv_ulR-9">
          <mxGeometry relative="1" as="geometry" />
        </mxCell>
        <mxCell id="ttpy7Zn74e-UWXRv_ulR-7" value="&lt;font style=&quot;vertical-align: inherit;&quot;&gt;&lt;font style=&quot;vertical-align: inherit;&quot;&gt;Recebe n&lt;/font&gt;&lt;/font&gt;" style="text;strokeColor=none;align=center;fillColor=none;html=1;verticalAlign=middle;whiteSpace=wrap;rounded=0;" vertex="1" parent="1">
          <mxGeometry x="355" y="680" width="60" height="30" as="geometry" />
        </mxCell>
        <mxCell id="ttpy7Zn74e-UWXRv_ulR-8" value="" style="rounded=1;whiteSpace=wrap;html=1;" vertex="1" parent="1">
          <mxGeometry x="342.5" y="750" width="85" height="95" as="geometry" />
        </mxCell>
        <mxCell id="ttpy7Zn74e-UWXRv_ulR-13" value="" style="edgeStyle=orthogonalEdgeStyle;rounded=0;orthogonalLoop=1;jettySize=auto;html=1;" edge="1" parent="1" source="ttpy7Zn74e-UWXRv_ulR-9" target="ttpy7Zn74e-UWXRv_ulR-12">
          <mxGeometry relative="1" as="geometry" />
        </mxCell>
        <mxCell id="ttpy7Zn74e-UWXRv_ulR-9" value="&lt;font style=&quot;vertical-align: inherit;&quot;&gt;&lt;font style=&quot;vertical-align: inherit;&quot;&gt;Divide n por todos os numeros de 2 a n&lt;/font&gt;&lt;/font&gt;" style="text;strokeColor=none;align=center;fillColor=none;html=1;verticalAlign=middle;whiteSpace=wrap;rounded=0;" vertex="1" parent="1">
          <mxGeometry x="355" y="750" width="60" height="95" as="geometry" />
        </mxCell>
        <mxCell id="ttpy7Zn74e-UWXRv_ulR-19" value="" style="edgeStyle=orthogonalEdgeStyle;rounded=0;orthogonalLoop=1;jettySize=auto;html=1;" edge="1" parent="1" source="ttpy7Zn74e-UWXRv_ulR-11" target="ttpy7Zn74e-UWXRv_ulR-18">
          <mxGeometry relative="1" as="geometry" />
        </mxCell>
        <mxCell id="ttpy7Zn74e-UWXRv_ulR-11" value="" style="strokeWidth=2;html=1;shape=mxgraph.flowchart.decision;whiteSpace=wrap;" vertex="1" parent="1">
          <mxGeometry x="335" y="920" width="100" height="100" as="geometry" />
        </mxCell>
        <mxCell id="ttpy7Zn74e-UWXRv_ulR-15" value="" style="edgeStyle=orthogonalEdgeStyle;rounded=0;orthogonalLoop=1;jettySize=auto;html=1;" edge="1" parent="1" source="ttpy7Zn74e-UWXRv_ulR-12" target="ttpy7Zn74e-UWXRv_ulR-14">
          <mxGeometry relative="1" as="geometry" />
        </mxCell>
        <mxCell id="ttpy7Zn74e-UWXRv_ulR-12" value="Se resto da divisao igual a 0" style="text;strokeColor=none;align=center;fillColor=none;html=1;verticalAlign=middle;whiteSpace=wrap;rounded=0;" vertex="1" parent="1">
          <mxGeometry x="352" y="937.5" width="66" height="65" as="geometry" />
        </mxCell>
        <mxCell id="ttpy7Zn74e-UWXRv_ulR-14" value="" style="whiteSpace=wrap;html=1;" vertex="1" parent="1">
          <mxGeometry x="560" y="940" width="120" height="60" as="geometry" />
        </mxCell>
        <mxCell id="ttpy7Zn74e-UWXRv_ulR-16" value="conta_divisores recebe +1" style="text;strokeColor=none;align=center;fillColor=none;html=1;verticalAlign=middle;whiteSpace=wrap;rounded=0;" vertex="1" parent="1">
          <mxGeometry x="575" y="955" width="90" height="30" as="geometry" />
        </mxCell>
        <mxCell id="ttpy7Zn74e-UWXRv_ulR-17" value="Verdadeiro" style="text;strokeColor=none;align=center;fillColor=none;html=1;verticalAlign=middle;whiteSpace=wrap;rounded=0;" vertex="1" parent="1">
          <mxGeometry x="460" y="940" width="60" height="30" as="geometry" />
        </mxCell>
        <mxCell id="ttpy7Zn74e-UWXRv_ulR-18" value="" style="whiteSpace=wrap;html=1;strokeWidth=2;" vertex="1" parent="1">
          <mxGeometry x="100" y="940" width="120" height="60" as="geometry" />
        </mxCell>
        <mxCell id="ttpy7Zn74e-UWXRv_ulR-20" value="Falso" style="text;strokeColor=none;align=center;fillColor=none;html=1;verticalAlign=middle;whiteSpace=wrap;rounded=0;" vertex="1" parent="1">
          <mxGeometry x="240" y="940" width="60" height="30" as="geometry" />
        </mxCell>
        <mxCell id="ttpy7Zn74e-UWXRv_ulR-22" style="edgeStyle=orthogonalEdgeStyle;rounded=0;orthogonalLoop=1;jettySize=auto;html=1;entryX=0;entryY=0.5;entryDx=0;entryDy=0;" edge="1" parent="1" source="ttpy7Zn74e-UWXRv_ulR-21" target="ttpy7Zn74e-UWXRv_ulR-8">
          <mxGeometry relative="1" as="geometry">
            <Array as="points">
              <mxPoint x="160" y="798" />
            </Array>
          </mxGeometry>
        </mxCell>
        <mxCell id="ttpy7Zn74e-UWXRv_ulR-21" value="Identador pula +1 para conta" style="text;strokeColor=none;align=center;fillColor=none;html=1;verticalAlign=middle;whiteSpace=wrap;rounded=0;" vertex="1" parent="1">
          <mxGeometry x="120" y="947.5" width="80" height="45" as="geometry" />
        </mxCell>
        <mxCell id="ttpy7Zn74e-UWXRv_ulR-23" value="i += 1" style="text;strokeColor=none;align=center;fillColor=none;html=1;verticalAlign=middle;whiteSpace=wrap;rounded=0;" vertex="1" parent="1">
          <mxGeometry x="220" y="770" width="60" height="30" as="geometry" />
        </mxCell>
        <mxCell id="ttpy7Zn74e-UWXRv_ulR-24" value="" style="strokeWidth=2;html=1;shape=mxgraph.flowchart.decision;whiteSpace=wrap;" vertex="1" parent="1">
          <mxGeometry x="570" y="1069" width="100" height="100" as="geometry" />
        </mxCell>
        <mxCell id="ttpy7Zn74e-UWXRv_ulR-25" style="edgeStyle=orthogonalEdgeStyle;rounded=0;orthogonalLoop=1;jettySize=auto;html=1;entryX=0.5;entryY=0;entryDx=0;entryDy=0;entryPerimeter=0;" edge="1" parent="1" source="ttpy7Zn74e-UWXRv_ulR-14" target="ttpy7Zn74e-UWXRv_ulR-24">
          <mxGeometry relative="1" as="geometry" />
        </mxCell>
        <mxCell id="ttpy7Zn74e-UWXRv_ulR-29" value="" style="edgeStyle=orthogonalEdgeStyle;rounded=0;orthogonalLoop=1;jettySize=auto;html=1;" edge="1" parent="1" source="ttpy7Zn74e-UWXRv_ulR-26" target="ttpy7Zn74e-UWXRv_ulR-28">
          <mxGeometry relative="1" as="geometry" />
        </mxCell>
        <mxCell id="ttpy7Zn74e-UWXRv_ulR-33" value="" style="edgeStyle=orthogonalEdgeStyle;rounded=0;orthogonalLoop=1;jettySize=auto;html=1;" edge="1" parent="1" source="ttpy7Zn74e-UWXRv_ulR-26" target="ttpy7Zn74e-UWXRv_ulR-32">
          <mxGeometry relative="1" as="geometry" />
        </mxCell>
        <mxCell id="ttpy7Zn74e-UWXRv_ulR-26" value="Se conta_divisores &amp;gt; 2" style="text;strokeColor=none;align=center;fillColor=none;html=1;verticalAlign=middle;whiteSpace=wrap;rounded=0;" vertex="1" parent="1">
          <mxGeometry x="575" y="1096" width="90" height="46" as="geometry" />
        </mxCell>
        <mxCell id="ttpy7Zn74e-UWXRv_ulR-28" value="" style="whiteSpace=wrap;html=1;" vertex="1" parent="1">
          <mxGeometry x="760" y="1089" width="120" height="60" as="geometry" />
        </mxCell>
        <mxCell id="ttpy7Zn74e-UWXRv_ulR-30" value="Numero nao primo" style="text;strokeColor=none;align=center;fillColor=none;html=1;verticalAlign=middle;whiteSpace=wrap;rounded=0;" vertex="1" parent="1">
          <mxGeometry x="790" y="1110" width="60" height="24" as="geometry" />
        </mxCell>
        <mxCell id="ttpy7Zn74e-UWXRv_ulR-31" value="Verdadeiro" style="text;strokeColor=none;align=center;fillColor=none;html=1;verticalAlign=middle;whiteSpace=wrap;rounded=0;" vertex="1" parent="1">
          <mxGeometry x="680" y="1089" width="60" height="30" as="geometry" />
        </mxCell>
        <mxCell id="ttpy7Zn74e-UWXRv_ulR-32" value="" style="whiteSpace=wrap;html=1;" vertex="1" parent="1">
          <mxGeometry x="352" y="1089" width="120" height="60" as="geometry" />
        </mxCell>
        <mxCell id="ttpy7Zn74e-UWXRv_ulR-34" value="Numero primo" style="text;strokeColor=none;align=center;fillColor=none;html=1;verticalAlign=middle;whiteSpace=wrap;rounded=0;" vertex="1" parent="1">
          <mxGeometry x="384" y="1104" width="60" height="30" as="geometry" />
        </mxCell>
        <mxCell id="ttpy7Zn74e-UWXRv_ulR-35" value="Falso" style="text;strokeColor=none;align=center;fillColor=none;html=1;verticalAlign=middle;whiteSpace=wrap;rounded=0;" vertex="1" parent="1">
          <mxGeometry x="490" y="1089" width="60" height="30" as="geometry" />
        </mxCell>
      </root>
    </mxGraphModel>
  </diagram>
</mxfile>
